<?xml version="1.0" standalone="no"?>
<!DOCTYPE svg PUBLIC "-//W3C//DTD SVG 20010904//EN"
 "http://www.w3.org/TR/2001/REC-SVG-20010904/DTD/svg10.dtd">
<svg version="1.0" xmlns="http://www.w3.org/2000/svg"
 width="474.000000pt" height="474.000000pt" viewBox="0 0 474.000000 474.000000"
 preserveAspectRatio="xMidYMid meet">

<g transform="translate(0.000000,474.000000) scale(0.100000,-0.100000)"
fill="#000000" stroke="none">
<path d="M2120 3864 c-147 -31 -284 -134 -347 -264 -59 -124 -78 -202 -77
-330 1 -145 25 -233 65 -238 22 -3 39 17 141 158 l116 160 29 -24 c56 -47 205
-138 296 -181 178 -84 358 -129 498 -123 100 4 106 15 56 113 -21 41 -57 98
-80 126 l-41 52 34 -7 c125 -27 142 -17 115 66 -53 160 -142 244 -298 278 -63
15 -63 17 3 53 60 33 65 62 13 84 -29 13 -67 17 -163 17 -124 0 -144 -4 -251
-48 -15 -6 -15 -2 -6 37 18 79 0 91 -103 71z"/>
<path d="M3293 3304 c-4 -12 16 -37 67 -86 l72 -70 -71 -72 c-71 -71 -85 -101
-55 -113 11 -4 43 21 105 83 49 49 89 93 89 99 0 18 -164 175 -183 175 -10 0
-20 -7 -24 -16z"/>
<path d="M3586 3013 c-14 -35 20 -43 168 -43 78 0 147 4 154 9 8 5 12 17 10
27 -3 18 -16 19 -164 22 -146 2 -162 1 -168 -15z"/>
<path d="M1671 2971 c-30 -30 -36 -67 -23 -140 14 -81 52 -139 108 -165 40
-19 42 -21 48 -79 5 -48 25 -110 62 -193 3 -5 -51 -39 -118 -74 -282 -146
-322 -170 -375 -226 -29 -30 -60 -68 -68 -84 -8 -16 -74 -186 -147 -377 -126
-336 -131 -351 -132 -428 -1 -69 3 -89 28 -143 29 -64 107 -146 168 -178 40
-21 2095 -22 2135 0 57 29 139 114 168 172 26 52 30 69 29 144 0 84 -1 88
-132 434 -73 192 -143 368 -156 391 -43 72 -113 127 -271 209 -264 139 -285
151 -281 161 37 80 57 144 62 194 6 50 10 62 28 67 39 12 84 53 106 99 30 62
33 181 5 201 -31 23 -44 1 -38 -60 10 -98 -36 -179 -107 -191 -38 -6 -40 -9
-40 -43 0 -52 -25 -164 -45 -204 -98 -192 -317 -291 -516 -232 -174 51 -287
189 -311 380 l-11 90 -46 14 c-54 18 -84 57 -100 131 -9 42 -8 57 5 86 15 31
15 36 2 50 -14 14 -18 13 -37 -6z m282 -680 c89 -92 254 -150 380 -135 118 14
208 54 287 130 l57 54 104 -55 c57 -31 156 -82 219 -115 116 -59 195 -124 226
-181 7 -15 73 -186 145 -380 147 -393 152 -418 110 -515 -25 -56 -46 -81 -114
-135 -48 -39 -49 -39 -138 -39 l-89 0 2 182 3 182 73 44 c47 28 72 50 72 62 0
31 -26 30 -84 -6 -31 -19 -59 -34 -62 -34 -2 0 -4 118 -4 263 0 239 -2 265
-19 293 -40 66 -10 64 -828 64 -683 0 -741 -1 -772 -18 -19 -9 -44 -30 -55
-45 -20 -27 -21 -45 -26 -293 l-5 -264 -59 35 c-46 28 -61 33 -72 24 -26 -21
-14 -37 61 -81 l75 -43 0 -182 0 -183 -89 0 c-88 0 -90 0 -138 39 -104 82
-138 149 -131 258 4 56 26 126 132 408 70 187 138 356 151 375 46 71 96 107
292 210 109 57 207 109 218 117 11 7 22 13 25 13 3 0 26 -22 53 -49z m1112
-406 l25 -24 0 -471 0 -470 -795 0 -795 0 0 475 c0 462 1 476 20 495 20 20 33
20 770 20 l751 0 24 -25z"/>
<path d="M1853 2973 c-19 -7 -16 -29 13 -117 39 -115 40 -116 187 -116 117 0
125 1 146 24 12 13 30 52 39 87 17 63 18 64 51 64 33 0 35 -2 58 -70 33 -101
41 -105 185 -105 111 0 120 1 142 23 13 13 31 49 40 80 28 95 30 118 15 128
-14 9 -853 11 -876 2z"/>
<path d="M3081 2781 c-8 -5 -11 -47 -9 -147 3 -131 4 -139 23 -139 19 0 20 8
23 141 2 113 0 143 -11 147 -8 3 -19 2 -26 -2z"/>
<path d="M3243 2774 c-39 -20 -53 -56 -53 -141 0 -69 17 -116 49 -133 33 -17
78 -11 108 14 25 22 28 31 31 105 5 100 -8 138 -54 157 -41 17 -42 17 -81 -2z
m71 -60 c24 -23 22 -125 -3 -155 -16 -20 -23 -22 -38 -13 -14 9 -19 27 -21 89
-2 56 1 81 10 86 20 13 35 11 52 -7z"/>
<path d="M3461 2781 c-8 -5 -11 -47 -9 -147 3 -131 4 -139 23 -139 19 0 20 8
23 141 2 113 0 143 -11 147 -8 3 -19 2 -26 -2z"/>
<path d="M3635 2781 c-44 -18 -60 -49 -63 -127 -6 -113 24 -164 96 -164 24 0
42 9 63 29 27 28 29 34 29 110 0 92 -10 121 -50 144 -31 19 -45 20 -75 8z m63
-68 c4 -10 7 -47 6 -82 -2 -74 -19 -100 -53 -82 -18 10 -21 21 -21 84 0 44 5
78 12 85 17 17 46 15 56 -5z"/>
<path d="M3302 2372 c-9 -7 -12 -43 -10 -148 3 -131 4 -139 23 -139 19 0 20 7
20 144 0 142 -4 161 -33 143z"/>
<path d="M3454 2370 c-42 -17 -54 -48 -54 -141 0 -103 4 -115 41 -134 43 -23
77 -18 110 14 28 28 29 34 29 116 0 97 -8 118 -50 140 -32 17 -45 18 -76 5z
m65 -64 c7 -9 11 -40 9 -81 -2 -56 -7 -70 -24 -82 -19 -12 -24 -12 -38 2 -20
20 -23 144 -4 163 16 16 43 15 57 -2z"/>
<path d="M3694 2370 c-42 -17 -54 -48 -54 -141 0 -103 4 -115 41 -134 43 -23
77 -18 110 14 28 28 29 34 29 116 0 97 -8 118 -50 140 -32 17 -45 18 -76 5z
m65 -64 c7 -9 11 -40 9 -81 -2 -56 -7 -70 -24 -82 -19 -12 -24 -12 -38 2 -20
20 -23 144 -4 163 16 16 43 15 57 -2z"/>
<path d="M3884 2367 c-2 -7 -3 -74 -2 -148 3 -126 4 -134 23 -134 19 0 20 8
23 134 2 90 -1 138 -9 147 -14 18 -28 18 -35 1z"/>
</g>
</svg>
