<?xml version="1.0" encoding="UTF-8"?>
<svg version="1.1" xmlns="http://www.w3.org/2000/svg" width="600" height="600">
<path d="M0 0 C1.7638474 1.02425681 3.52820574 2.04763406 5.29296875 3.0703125 C9.34076666 5.42194898 13.38087197 7.78629693 17.41796875 10.15625 C24.24849222 14.15741065 31.12118218 18.0828085 38 22 C46.69435344 26.95318819 55.36498139 31.94378902 64 37 C72.5951729 42.0318979 81.22312222 47.00389124 89.875 51.9375 C104.34950369 60.19165636 118.78221846 68.51717372 133.20898438 76.85449219 C136.43068275 78.71602672 139.65271079 80.57698839 142.875 82.4375 C143.94105469 83.05302734 145.00710938 83.66855469 146.10546875 84.30273438 C152.91708238 88.23188245 159.74020718 92.14025398 166.57128906 96.03540039 C171.24324562 98.69949251 175.91081394 101.37123666 180.578125 104.04345703 C182.8526461 105.34397159 185.12868189 106.64184075 187.40625 107.93701172 C190.65054265 109.78324543 193.88836078 111.64038982 197.125 113.5 C198.07777832 114.03890869 199.03055664 114.57781738 200.01220703 115.13305664 C213.39230697 122.8605819 223.86931946 132.04894106 229 147 C230.77395174 154.36658721 231.29157263 161.53341707 231.26742554 169.08573914 C231.27195665 170.14557237 231.27648776 171.2054056 231.28115618 172.297355 C231.29373151 175.8189689 231.29218426 179.34042679 231.29052734 182.86206055 C231.29651689 185.39926856 231.30332341 187.93647476 231.31088257 190.47367859 C231.32667887 196.63312141 231.33298908 202.79250788 231.33410732 208.95196905 C231.33506099 213.96396989 231.33918712 218.97595821 231.34550858 223.98795509 C231.36310286 238.2296786 231.3723503 252.47137208 231.37084763 266.71310654 C231.37072776 267.86240029 231.37072776 267.86240029 231.37060547 269.03491211 C231.37052371 269.80205447 231.37044195 270.56919682 231.37035771 271.35958592 C231.36954535 283.78326008 231.38867507 296.20681286 231.4168822 308.63045194 C231.44568436 321.41810638 231.45941847 334.20570176 231.45769465 346.99338943 C231.45703327 354.16017752 231.46241435 361.32683835 231.48405075 368.49359703 C231.50428384 375.23820198 231.5035144 381.98249498 231.48901749 388.72712898 C231.48693611 391.19247201 231.49158989 393.65783208 231.5037384 396.12314606 C231.59670419 416.30747649 230.66530083 433.41999255 216.5 449.125 C211.42152861 453.88726468 205.46844742 457.19221336 199.45166016 460.60546875 C196.70213208 462.16943055 193.9659619 463.75537036 191.23046875 465.34375 C179.21825548 472.31016241 167.16071688 479.19678458 155.09829712 486.07571411 C147.0393755 490.6728344 139.00681313 495.31266145 131 500 C122.40477328 505.0318069 113.7768787 510.00389072 105.125 514.9375 C92.79974804 521.96603507 80.50277933 529.04240434 68.21777344 536.14111328 C61.73244661 539.88764427 55.24413842 543.62901086 48.75610352 547.37084961 C43.30047467 550.51761725 37.84619091 553.66667268 32.39453125 556.8203125 C26.99020681 559.94584945 21.58152994 563.06372217 16.16943359 566.17578125 C14.0512907 567.39491264 11.93443267 568.616279 9.81884766 569.83984375 C6.75822195 571.60860678 3.69230455 573.36785066 0.625 575.125 C-0.27114014 575.64529785 -1.16728027 576.1655957 -2.09057617 576.70166016 C-17.60130272 585.54304887 -31.41741481 589.14658492 -49.2109375 586.52734375 C-64.43898014 582.0839706 -78.7925124 571.81423742 -92.36328125 563.7421875 C-98.02478771 560.38062887 -103.7321213 557.09885534 -109.4375 553.8125 C-110.54448242 553.17465576 -111.65146484 552.53681152 -112.79199219 551.87963867 C-115.06287274 550.571414 -117.33386985 549.26339163 -119.60498047 547.95556641 C-125.07169984 544.80667944 -130.53572129 541.65311964 -136 538.5 C-138.16926817 537.2486933 -140.338539 535.99739122 -142.5078125 534.74609375 C-146.81601651 532.26069098 -151.12322789 529.77358023 -155.4296875 527.28515625 C-166.60449102 520.82980858 -177.79154303 514.39670656 -189 508 C-201.28241289 500.99038295 -213.53757795 493.9342758 -225.78222656 486.85888672 C-230.10341115 484.36256658 -234.42597792 481.86864908 -238.74926758 479.37597656 C-240.90642962 478.13109236 -243.06252849 476.88436395 -245.2175293 475.63574219 C-250.21310686 472.74394401 -255.21577237 469.86885649 -260.25863647 467.06039429 C-262.01940719 466.07864392 -263.77673996 465.09099589 -265.53320312 464.1015625 C-267.71936382 462.87239584 -269.91162367 461.65397996 -272.11132812 460.44921875 C-286.72832515 452.187846 -295.99252275 442.1552427 -301.16577053 426.20409 C-302.45599635 421.24861937 -302.55328565 416.52915301 -302.50793457 411.43214417 C-302.51417453 410.33258784 -302.5204145 409.23303151 -302.52684355 408.10015529 C-302.54267906 404.45009087 -302.53020584 400.80070303 -302.51757812 397.15063477 C-302.52300347 394.51972534 -302.52998488 391.88886106 -302.53881836 389.25796509 C-302.55653404 382.87435734 -302.55279466 376.49093852 -302.5411678 370.10732359 C-302.53210541 364.91510474 -302.53092155 359.72293854 -302.53526306 354.53071404 C-302.53587599 353.78952114 -302.53648893 353.04832824 -302.53712043 352.28467495 C-302.53839944 350.77857485 -302.53969629 349.27247477 -302.5410108 347.7663747 C-302.55239644 333.66845321 -302.53933505 319.57063602 -302.51780933 305.47273164 C-302.49994387 293.39867968 -302.50304178 281.3247816 -302.52148438 269.25073242 C-302.54293323 255.20211967 -302.5512941 241.15359819 -302.53903532 227.10497135 C-302.53776124 225.60434816 -302.53650375 224.10372495 -302.53526306 222.60310173 C-302.53464596 221.86492518 -302.53402886 221.12674863 -302.53339306 220.36620309 C-302.52995189 215.18591656 -302.53574182 210.00568834 -302.54518127 204.82541084 C-302.55644757 198.50409549 -302.55326484 192.18297858 -302.5320583 185.8616857 C-302.52160895 182.64171405 -302.51950547 179.42213714 -302.53065491 176.20215797 C-302.58959826 157.44360229 -301.82165883 141.38624589 -288.4375 126.875 C-283.21277318 121.97984778 -277.17546965 118.54965835 -271 115 C-269.12085306 113.90796615 -267.24196913 112.81547965 -265.36328125 111.72265625 C-253.31133969 104.73080469 -241.20757577 97.82929009 -229.10388184 90.92758179 C-219.94327379 85.70295027 -210.82572424 80.40789021 -201.72607422 75.07788086 C-194.07123083 70.60310434 -186.36058495 66.2336135 -178.63232422 61.88720703 C-171.82200847 58.04938154 -165.05774686 54.13844633 -158.3125 50.1875 C-149.61352949 45.09234804 -140.882771 40.05575323 -132.125 35.0625 C-123.02910873 29.87573261 -113.94310361 24.67279287 -104.875 19.4375 C-103.82054687 18.82922363 -102.76609375 18.22094727 -101.6796875 17.59423828 C-96.70740079 14.72438392 -91.73805235 11.84965369 -86.7762146 8.96177673 C-85.02481645 7.94284741 -83.27255481 6.92541932 -81.52001953 5.90844727 C-79.33696439 4.64109475 -77.15551183 3.37097555 -74.97607422 2.09741211 C-47.9104064 -13.59823334 -27.29946522 -16.09370183 0 0 Z " fill="#5C8DBC" transform="translate(302,12)"/>
<path d="M0 0 C0.64205902 1.26230051 1.26230861 2.53568693 1.875 3.8125 C2.22304688 4.52019531 2.57109375 5.22789062 2.9296875 5.95703125 C5.80022144 14.11814783 6.29485964 22.50536265 6.26742554 31.08573914 C6.27195665 32.14557237 6.27648776 33.2054056 6.28115618 34.297355 C6.29373151 37.8189689 6.29218426 41.34042679 6.29052734 44.86206055 C6.29651689 47.39926856 6.30332341 49.93647476 6.31088257 52.47367859 C6.32667887 58.63312141 6.33298908 64.79250788 6.33410732 70.95196905 C6.33506099 75.96396989 6.33918712 80.97595821 6.34550858 85.98795509 C6.36310286 100.2296786 6.3723503 114.47137208 6.37084763 128.71310654 C6.37072776 129.86240029 6.37072776 129.86240029 6.37060547 131.03491211 C6.37052371 131.80205447 6.37044195 132.56919682 6.37035771 133.35958592 C6.36954535 145.78326008 6.38867507 158.20681286 6.4168822 170.63045194 C6.44568436 183.41810638 6.45941847 196.20570176 6.45769465 208.99338943 C6.45703327 216.16017752 6.46241435 223.32683835 6.48405075 230.49359703 C6.50428384 237.23820198 6.5035144 243.98249498 6.48901749 250.72712898 C6.48693611 253.19247201 6.49158989 255.65783208 6.5037384 258.12314606 C6.59670419 278.30747649 5.66530083 295.41999255 -8.5 311.125 C-13.57847139 315.88726468 -19.53155258 319.19221336 -25.54833984 322.60546875 C-28.29786792 324.16943055 -31.0340381 325.75537036 -33.76953125 327.34375 C-45.78174452 334.31016241 -57.83928312 341.19678458 -69.90170288 348.07571411 C-77.9606245 352.6728344 -85.99318687 357.31266145 -94 362 C-102.59522672 367.0318069 -111.2231213 372.00389072 -119.875 376.9375 C-132.20025196 383.96603507 -144.49722067 391.04240434 -156.78222656 398.14111328 C-163.26755339 401.88764427 -169.75586158 405.62901086 -176.24389648 409.37084961 C-181.69952533 412.51761725 -187.15380909 415.66667268 -192.60546875 418.8203125 C-198.00979319 421.94584945 -203.41847006 425.06372217 -208.83056641 428.17578125 C-210.9487093 429.39491264 -213.06556733 430.616279 -215.18115234 431.83984375 C-218.24177805 433.60860678 -221.30769545 435.36785066 -224.375 437.125 C-225.27114014 437.64529785 -226.16728027 438.1655957 -227.09057617 438.70166016 C-242.60130272 447.54304887 -256.41741481 451.14658492 -274.2109375 448.52734375 C-289.43898014 444.0839706 -303.7925124 433.81423742 -317.36328125 425.7421875 C-323.02478771 422.38062887 -328.7321213 419.09885534 -334.4375 415.8125 C-335.54448242 415.17465576 -336.65146484 414.53681152 -337.79199219 413.87963867 C-340.06287274 412.571414 -342.33386985 411.26339163 -344.60498047 409.95556641 C-350.07169984 406.80667944 -355.53572129 403.65311964 -361 400.5 C-363.16926817 399.2486933 -365.338539 397.99739122 -367.5078125 396.74609375 C-371.81601651 394.26069098 -376.12322789 391.77358023 -380.4296875 389.28515625 C-391.60449102 382.82980858 -402.79154303 376.39670656 -414 370 C-426.28241289 362.99038295 -438.53757795 355.9342758 -450.78222656 348.85888672 C-455.10341115 346.36256658 -459.42597792 343.86864908 -463.74926758 341.37597656 C-465.90642962 340.13109236 -468.06252849 338.88436395 -470.2175293 337.63574219 C-475.21310686 334.74394401 -480.21577237 331.86885649 -485.25863647 329.06039429 C-487.01940719 328.07864392 -488.77673996 327.09099589 -490.53320312 326.1015625 C-492.71936382 324.87239584 -494.91162367 323.65397996 -497.11132812 322.44921875 C-506.51242959 317.13581522 -515.59828192 310.57086748 -521 301 C-519.74327861 297.22983584 -518.70437669 296.99288597 -515.27734375 295.13671875 C-514.27662842 294.58709473 -513.27591309 294.0374707 -512.24487305 293.47119141 C-510.60772339 292.58826416 -510.60772339 292.58826416 -508.9375 291.6875 C-506.62915499 290.41983071 -504.32183508 289.15044067 -502.015625 287.87890625 C-501.13181404 287.39330231 -501.13181404 287.39330231 -500.23014832 286.89788818 C-494.49105165 283.73817795 -488.83440024 280.44580971 -483.1875 277.125 C-473.37134551 271.36681637 -463.50641457 265.69777495 -453.61816406 260.06469727 C-447.58383365 256.62585394 -441.5585393 253.17259829 -435.55078125 249.6875 C-434.94876892 249.33860214 -434.34675659 248.98970428 -433.72650146 248.63023376 C-430.84385846 246.95937391 -427.96289295 245.28580139 -425.08447266 243.60766602 C-424.06530762 243.01655029 -423.04614258 242.42543457 -421.99609375 241.81640625 C-421.10075928 241.29506104 -420.2054248 240.77371582 -419.28295898 240.23657227 C-417 239 -417 239 -414 238 C-412.97916667 239.45833333 -411.95833333 240.91666667 -410.9375 242.375 C-410.28910156 243.29667969 -409.64070313 244.21835937 -408.97265625 245.16796875 C-407.77500679 246.88736649 -406.59124381 248.61670198 -405.43359375 250.36328125 C-384.98420353 280.85798596 -354.39703195 303.59173458 -320 316 C-318.7934375 316.44214844 -317.586875 316.88429688 -316.34375 317.33984375 C-274.0908195 331.70060215 -224.95259496 328.02874878 -184.7734375 309.16796875 C-164.85337252 299.33331185 -148.59435141 286.66523483 -133 271 C-132.46109131 270.48840332 -131.92218262 269.97680664 -131.36694336 269.44970703 C-126.73979995 264.99507943 -123.00145781 260.18430951 -119.3125 254.9375 C-118.75755859 254.16083984 -118.20261719 253.38417969 -117.63085938 252.58398438 C-116.07428016 250.39811036 -114.53552369 248.20069104 -113 246 C-112.57638184 245.40977051 -112.15276367 244.81954102 -111.71630859 244.21142578 C-109.84577775 241.54663876 -109 240.34062108 -109 237 C-109.65145996 236.62415771 -110.30291992 236.24831543 -110.97412109 235.86108398 C-111.89789551 235.32813721 -112.82166992 234.79519043 -113.7734375 234.24609375 C-114.81258301 233.64659912 -115.85172852 233.04710449 -116.92236328 232.42944336 C-119.25671642 231.08267577 -121.59103235 229.73584393 -123.92529297 228.38891602 C-129.83978489 224.97622702 -135.75488441 221.56460594 -141.671875 218.15625 C-156.14266976 209.81844037 -170.58332275 201.43102382 -185 193 C-185.45814087 194.17912964 -185.45814087 194.17912964 -185.92553711 195.38208008 C-187.60268937 199.46844766 -190.23315451 202.58775643 -193 206 C-193.62777344 206.78761719 -194.25554687 207.57523438 -194.90234375 208.38671875 C-209.87739924 226.15042517 -231.26974038 235.26924799 -254 238 C-277.65983979 239.29436783 -299.97392859 232.34703744 -318 217 C-318.99 216.2575 -319.98 215.515 -321 214.75 C-332.00486989 205.35634035 -339.28370157 192.09900077 -344.375 178.75 C-344.61371826 178.12520752 -344.85243652 177.50041504 -345.09838867 176.85668945 C-352.84518435 155.37018816 -350.04384395 131.74019617 -340.69140625 111.27734375 C-329.67258348 89.92678415 -311.44567826 73.28706319 -288.59082031 65.7199707 C-270.92331336 60.16431958 -250.48073892 59.4325429 -233 66 C-232.35659668 66.23605957 -231.71319336 66.47211914 -231.05029297 66.71533203 C-211.42859715 74.06103568 -196.7746743 86.69978021 -185 104 C-180.70404177 102.69520126 -177.01809322 101.03928404 -173.1328125 98.796875 C-172.01245605 98.15355225 -170.89209961 97.51022949 -169.73779297 96.84741211 C-168.53344224 96.14842359 -167.32918014 95.44928235 -166.125 94.75 C-164.86758835 94.02505888 -163.60993506 93.30053673 -162.35205078 92.57641602 C-158.56321198 90.39255507 -154.78063915 88.19801917 -151 86 C-149.93201172 85.37915527 -148.86402344 84.75831055 -147.76367188 84.11865234 C-142.83119408 81.24773401 -137.90311245 78.36935695 -132.9765625 75.48828125 C-117.07577029 66.19666511 -101.09377624 57.0458608 -85.0958252 47.9229126 C-76.06077619 42.76895072 -67.06491952 37.55096588 -58.08862305 32.29541016 C-49.13739435 27.06229279 -40.1377294 21.91561355 -31.12744141 16.78515625 C-25.76192004 13.72882413 -20.403631 10.66198394 -15.07421875 7.54296875 C-14.18710205 7.02436279 -13.29998535 6.50575684 -12.38598633 5.97143555 C-10.75730827 5.01703179 -9.13070729 4.05907121 -7.5065918 3.09692383 C-2.21955819 0 -2.21955819 0 0 0 Z " fill="#1B598E" transform="translate(527,150)"/>
<path d="M0 0 C2.63093304 2.31003137 5.18354753 4.69271221 7.70849609 7.11767578 C9.72770903 9.04058779 11.7584376 10.80130497 13.93505859 12.53564453 C17.87213979 15.84855432 20.93863822 19.8772674 24.13037109 23.89111328 C25.76210934 25.9292808 27.42535895 27.86190509 29.18505859 29.78564453 C32.32509858 33.40603057 34.95300497 37.37672256 37.62255859 41.34814453 C38.30306274 42.35506348 38.30306274 42.35506348 38.99731445 43.38232422 C42.24755859 48.28915244 42.24755859 48.28915244 42.24755859 50.53564453 C40.65641276 51.45361328 39.06526693 52.37158203 37.47412109 53.28955078 C36.43489502 53.88912598 35.39566895 54.48870117 34.32495117 55.10644531 C31.99153057 56.45260508 29.65804539 57.79865222 27.32446289 59.14453125 C20.30789286 63.19155097 13.29394941 67.2430566 6.28271484 71.29931641 C3.06942462 73.15523494 -0.14787746 75.00404346 -3.36572266 76.85205078 C-7.71449065 79.35107428 -12.04119569 81.88403349 -16.35791016 84.43798828 C-18.44759417 85.65831395 -20.53743151 86.87837709 -22.62744141 88.09814453 C-23.59061279 88.67709473 -24.55378418 89.25604492 -25.54614258 89.85253906 C-26.43664307 90.36800293 -27.32714355 90.8834668 -28.24462891 91.41455078 C-29.02177246 91.87418213 -29.79891602 92.33381348 -30.59960938 92.80737305 C-32.75244141 93.53564453 -32.75244141 93.53564453 -34.90429688 92.8269043 C-37.59065087 90.95000519 -39.1217585 88.58283787 -41.00244141 85.91064453 C-50.57116951 72.76637819 -62.58684889 63.48725788 -77.75244141 57.53564453 C-78.68056641 57.16697266 -79.60869141 56.79830078 -80.56494141 56.41845703 C-101.15416587 48.58311328 -124.74019937 49.10895024 -145.00244141 57.78564453 C-167.63367148 68.08459591 -183.06911824 84.5723353 -192.75244141 107.53564453 C-200.90332449 131.54234881 -199.41906167 154.93899788 -188.67822266 177.76611328 C-185.89624644 183.38293326 -182.49183259 188.51373488 -178.75244141 193.53564453 C-178.27291016 194.18791016 -177.79337891 194.84017578 -177.29931641 195.51220703 C-164.48155966 211.64490087 -142.29117335 222.76202087 -122.06494141 225.16064453 C-104.05312699 226.63881775 -88.10785808 224.11589472 -71.75244141 216.53564453 C-70.78822266 216.09478516 -69.82400391 215.65392578 -68.83056641 215.19970703 C-54.50140601 208.03512683 -42.03439991 195.78295465 -34.75244141 181.53564453 C-30.96725409 182.95169513 -27.55494819 184.68985518 -24.05322266 186.70361328 C-22.93923096 187.34218262 -21.82523926 187.98075195 -20.67749023 188.63867188 C-19.47325125 189.33339897 -18.26906975 190.02822569 -17.06494141 190.72314453 C-15.81468109 191.44166138 -14.56427194 192.1599193 -13.3137207 192.87792969 C-10.08905234 194.73052192 -6.86673615 196.58716576 -3.64501953 198.44488525 C-0.6717609 200.15847868 2.30368748 201.86825557 5.27880859 203.57861328 C9.62979624 206.08110915 13.97572882 208.59205426 18.31787109 211.10986328 C22.06937795 213.2844307 25.83313908 215.43342363 29.61474609 217.55517578 C30.4169458 218.01102051 31.21914551 218.46686523 32.0456543 218.93652344 C33.50455621 219.76546286 34.96890144 220.5849303 36.43969727 221.39257812 C41.03199872 224.0249877 41.03199872 224.0249877 42.0534668 226.44482422 C42.29717604 229.07013989 41.7612793 229.90533991 40.25537109 232.03955078 C39.80194336 232.69246094 39.34851563 233.34537109 38.88134766 234.01806641 C38.38344727 234.70449219 37.88554687 235.39091797 37.37255859 236.09814453 C36.86950195 236.8090625 36.36644531 237.51998047 35.84814453 238.25244141 C31.57001375 244.23587889 27.03736066 249.95210383 22.24755859 255.53564453 C21.64298828 256.26267578 21.03841797 256.98970703 20.41552734 257.73876953 C17.06341576 261.70379543 13.5433475 265.23102321 9.57177734 268.57470703 C7.86077355 270.01827662 6.17997922 271.49784054 4.51708984 272.99658203 C-32.94497029 306.44049476 -80.79849478 317.17823274 -129.75244141 314.53564453 C-157.14684083 312.4616206 -184.47870571 302.24269196 -207.06396484 286.69335938 C-208.7414145 285.5432052 -210.43661926 284.42372915 -212.13525391 283.30517578 C-239.3226409 265.04168532 -259.17469989 239.04676531 -272.75244141 209.53564453 C-273.30673828 208.34326172 -273.86103516 207.15087891 -274.43212891 205.92236328 C-292.2950467 165.97519139 -291.81696181 116.86442884 -276.85595703 76.08813477 C-275.31169331 72.15850761 -273.58982247 68.33610445 -271.75244141 64.53564453 C-271.20668457 63.40618408 -271.20668457 63.40618408 -270.64990234 62.25390625 C-260.27432681 41.16471515 -245.96411078 20.59841563 -227.75244141 5.53564453 C-226.89521484 4.81376953 -226.03798828 4.09189453 -225.15478516 3.34814453 C-206.01615923 -12.58725146 -184.537534 -24.16347678 -160.75244141 -31.46435547 C-159.145625 -32.00382813 -159.145625 -32.00382813 -157.50634766 -32.55419922 C-105.41031423 -49.12736712 -41.74565435 -34.88303634 0 0 Z " fill="#FEFEFE" transform="translate(376.75244140625,161.46435546875)"/>
<path d="M0 0 C3.80964847 3.54989971 6.56593985 7.21897553 9.25 11.6875 C13.23321877 18.09996143 17.80553356 23.5158793 23 29 C24.08825985 30.28751869 25.17180482 31.57904126 26.25 32.875 C44.55097658 53.57204124 69.14211839 68.67211791 95 78 C96.2065625 78.44214844 97.413125 78.88429688 98.65625 79.33984375 C140.9091805 93.70060215 190.04740504 90.02874878 230.2265625 71.16796875 C250.14662748 61.33331185 266.40564859 48.66523483 282 33 C282.81053833 32.23042969 282.81053833 32.23042969 283.63745117 31.4453125 C288.22427719 27.02916793 291.91793888 22.27215612 295.5625 17.0625 C296.64641329 15.5320404 297.7310445 14.00208899 298.81640625 12.47265625 C299.59975342 11.36494873 299.59975342 11.36494873 300.39892578 10.23486328 C302.87443284 6.77942083 305.4306286 3.38597988 308 0 C318.03264517 5.22807419 327.82549551 10.77332464 337.55078125 16.55029297 C342.16774119 19.2830988 346.80300358 21.98457603 351.4375 24.6875 C352.44868896 25.27740723 353.45987793 25.86731445 354.50170898 26.47509766 C363.06219274 31.46385574 371.64413537 36.4149831 380.22973633 41.36035156 C391.51216443 47.86298561 402.75895499 54.42611916 414 61 C412.66593752 64.47534885 411.40111098 67.06776479 408.9375 69.875 C408.41027344 70.49117188 407.88304687 71.10734375 407.33984375 71.7421875 C400.36231825 78.47509191 392.48258219 83.20945268 384 87.8125 C381.75834752 89.04808855 379.51746255 90.28507056 377.27734375 91.5234375 C376.19565918 92.11995117 375.11397461 92.71646484 373.99951172 93.33105469 C370.15023265 95.47281537 366.34833836 97.68598507 362.5625 99.9375 C345.85656302 109.84835933 328.97109803 119.45385918 312.0977478 129.07598877 C304.03901259 133.67302225 296.00663618 138.31276504 288 143 C279.40477328 148.0318069 270.7768787 153.00389072 262.125 157.9375 C253.02919951 163.12442461 243.94294489 168.32693116 234.875 173.5625 C233.81619629 174.17367676 232.75739258 174.78485352 231.66650391 175.41455078 C226.18449878 178.58016867 220.70477514 181.74969907 215.2265625 184.921875 C208.82476616 188.62691348 202.41670245 192.32083495 196 196 C195.10152344 196.51530273 194.20304687 197.03060547 193.27734375 197.56152344 C175.73400992 207.58532906 161.38040823 213.55842992 140.7890625 210.52734375 C125.56101986 206.0839706 111.2074876 195.81423742 97.63671875 187.7421875 C91.97521229 184.38062887 86.2678787 181.09885534 80.5625 177.8125 C79.45551758 177.17465576 78.34853516 176.53681152 77.20800781 175.87963867 C74.93712726 174.571414 72.66613015 173.26339163 70.39501953 171.95556641 C64.92830016 168.80667944 59.46427871 165.65311964 54 162.5 C51.83073183 161.2486933 49.661461 159.99739122 47.4921875 158.74609375 C43.18398349 156.26069098 38.87677211 153.77358023 34.5703125 151.28515625 C23.39550898 144.82980858 12.20845697 138.39670656 1 132 C-11.28241289 124.99038295 -23.53757795 117.9342758 -35.78222656 110.85888672 C-40.10341115 108.36256658 -44.42597792 105.86864908 -48.74926758 103.37597656 C-50.90642962 102.13109236 -53.06252849 100.88436395 -55.2175293 99.63574219 C-60.21310686 96.74394401 -65.21577237 93.86885649 -70.25863647 91.06039429 C-72.01940719 90.07864392 -73.77673996 89.09099589 -75.53320312 88.1015625 C-77.71936382 86.87239584 -79.91162367 85.65397996 -82.11132812 84.44921875 C-91.51242959 79.13581522 -100.59828192 72.57086748 -106 63 C-104.74327861 59.22983584 -103.70437669 58.99288597 -100.27734375 57.13671875 C-99.27662842 56.58709473 -98.27591309 56.0374707 -97.24487305 55.47119141 C-96.15343994 54.88257324 -95.06200684 54.29395508 -93.9375 53.6875 C-91.62915499 52.41983071 -89.32183508 51.15044067 -87.015625 49.87890625 C-86.42641769 49.55517029 -85.83721039 49.23143433 -85.23014832 48.89788818 C-79.49105165 45.73817795 -73.83440024 42.44580971 -68.1875 39.125 C-59.53189736 34.04759933 -50.84294756 29.031924 -42.125 24.0625 C-31.39501466 17.9460929 -20.68682144 11.79329595 -9.99658203 5.60766602 C-8.46300049 4.72099243 -8.46300049 4.72099243 -6.8984375 3.81640625 C-5.99786621 3.29506104 -5.09729492 2.77371582 -4.16943359 2.23657227 C-2.79924592 1.45556838 -1.41063995 0.70531997 0 0 Z " fill="#1A4674" transform="translate(112,388)"/>
<path d="M0 0 C0.64340332 0.23605957 1.28680664 0.47211914 1.94970703 0.71533203 C22.15151498 8.27821017 36.60171434 21.57052596 49 39 C46.09058017 41.26949953 43.10539313 43.17557044 39.90625 45.01171875 C38.89006592 45.59655029 37.87388184 46.18138184 36.8269043 46.78393555 C35.72902588 47.41211182 34.63114746 48.04028809 33.5 48.6875 C32.34209088 49.35242387 31.18429684 50.01754821 30.02661133 50.68286133 C26.35331719 52.79249869 22.67683098 54.89653484 19 57 C17.79214251 57.69138451 16.58429734 58.38279056 15.37646484 59.07421875 C6.30417464 64.26673264 -2.77410366 69.44873595 -11.85400391 74.62792969 C-23.20163527 81.10100609 -34.52856245 87.60866138 -45.84057617 94.14379883 C-55.20072402 99.54756008 -64.58228864 104.91320539 -73.97241211 110.26464844 C-79.3014725 113.30422844 -84.62302083 116.3544333 -89.91796875 119.453125 C-90.80621338 119.97229492 -91.69445801 120.49146484 -92.60961914 121.02636719 C-94.23997034 121.98150645 -95.86820549 122.94027055 -97.49389648 123.90332031 C-102.78033661 127 -102.78033661 127 -105 127 C-116.73850044 102.20406649 -119.96929159 78.56394098 -110.6796875 52.26171875 C-101.97488964 30.49972411 -85.27328401 12.70089513 -64.00585938 2.85644531 C-44.24186426 -5.58222251 -20.30341462 -7.62792723 0 0 Z " fill="#5C8DBC" transform="translate(294,216)"/>
<path d="M0 0 C1.22396484 0.67434082 1.22396484 0.67434082 2.47265625 1.36230469 C3.32190674 1.81831055 4.17115723 2.27431641 5.04614258 2.74414062 C5.9564624 3.27297852 6.86678223 3.80181641 7.8046875 4.34667969 C8.83827393 4.94504639 9.87186035 5.54341309 10.93676758 6.15991211 C12.04173584 6.80420166 13.1467041 7.44849121 14.28515625 8.11230469 C15.44865121 8.78746765 16.61230938 9.46234944 17.77612305 10.13696289 C26.43797673 15.16185919 35.08274854 20.2162641 43.7277832 25.27001953 C53.60310147 31.03688181 63.53110672 36.71055888 73.47265625 42.36230469 C72.39931767 48.44434767 69.3978334 51.70254808 65.47265625 56.36230469 C64.49619141 57.57660156 64.49619141 57.57660156 63.5 58.81542969 C48.57669391 76.55603282 27.14022223 85.63908452 4.47265625 88.36230469 C-19.18718354 89.65667251 -41.50127234 82.70934213 -59.52734375 67.36230469 C-60.51734375 66.61980469 -61.50734375 65.87730469 -62.52734375 65.11230469 C-68.75805986 59.87362997 -74.60017941 52.50260349 -78.52734375 45.36230469 C-77.3115045 41.71478694 -76.52446378 41.50974726 -73.2421875 39.71777344 C-72.33186768 39.21334717 -71.42154785 38.7089209 -70.48364258 38.18920898 C-69.48743896 37.64820557 -68.49123535 37.10720215 -67.46484375 36.54980469 C-65.34157747 35.37429223 -63.21920789 34.19715889 -61.09765625 33.01855469 C-60.00356445 32.41269531 -58.90947266 31.80683594 -57.78222656 31.18261719 C-52.76058592 28.3742349 -47.80108884 25.4631085 -42.83984375 22.54980469 C-40.86082083 21.39721409 -38.88165074 20.24487615 -36.90234375 19.09277344 C-32.88901501 16.75272337 -28.89098987 14.38916253 -24.90339661 12.00569153 C-22.34765823 10.48282994 -19.78314577 8.97517641 -17.21688843 7.47012329 C-15.9732482 6.73613555 -14.73343804 5.99561624 -13.49771118 5.24838257 C-11.77409213 4.20713255 -10.03573566 3.19039704 -8.296875 2.17480469 C-7.30276611 1.583125 -6.30865723 0.99144531 -5.28442383 0.38183594 C-2.52734375 -0.63769531 -2.52734375 -0.63769531 0 0 Z " fill="#1A4674" transform="translate(268.52734375,299.6376953125)"/>
<path d="M0 0 C6.93 0 13.86 0 21 0 C21 6.6 21 13.2 21 20 C27.6 20 34.2 20 41 20 C41 26.93 41 33.86 41 41 C34.4 41 27.8 41 21 41 C21 47.6 21 54.2 21 61 C14.07 61 7.14 61 0 61 C0 54.4 0 47.8 0 41 C-6.6 41 -13.2 41 -20 41 C-20 34.07 -20 27.14 -20 20 C-13.4 20 -6.8 20 0 20 C0 13.4 0 6.8 0 0 Z " fill="#F7F9FB" transform="translate(477,269)"/>
<path d="M0 0 C6.6 0 13.2 0 20 0 C20 6.93 20 13.86 20 21 C26.6 21 33.2 21 40 21 C40 27.6 40 34.2 40 41 C33.4 41 26.8 41 20 41 C20 47.6 20 54.2 20 61 C13.4 61 6.8 61 0 61 C0 54.4 0 47.8 0 41 C-6.6 41 -13.2 41 -20 41 C-20 34.4 -20 27.8 -20 21 C-13.4 21 -6.8 21 0 21 C0 14.07 0 7.14 0 0 Z " fill="#FDFDFE" transform="translate(404,269)"/>
</svg>
