<?xml version="1.0" encoding="UTF-8"?>
<svg version="1.1" xmlns="http://www.w3.org/2000/svg" width="3000" height="2000">
<path d="M0 0 C15.11945365 15.7504826 16.6944876 35.3375902 16.64086914 56.09204102 C16.64058665 57.63029478 16.64074621 59.16854868 16.64131165 60.70680237 C16.6415972 64.85904152 16.63573968 69.01125146 16.62873769 73.16348386 C16.62246377 77.5116519 16.62189716 81.85982069 16.62071228 86.20799255 C16.61761084 94.43128685 16.60941351 102.65456777 16.59936279 110.87785619 C16.58816472 120.24426938 16.58268191 129.61068323 16.57766736 138.97710145 C16.56722986 158.23474341 16.54889919 177.49236705 16.52734375 196.75 C4.97734375 196.75 -6.57265625 196.75 -18.47265625 196.75 C-20.45265625 186.355 -20.45265625 186.355 -22.47265625 175.75 C-24.30828125 177.131875 -26.14390625 178.51375 -28.03515625 179.9375 C-29.62119263 181.13148244 -31.20748718 182.32517641 -32.80200195 183.5078125 C-33.92454794 184.34246309 -35.04023634 185.18640933 -36.14916992 186.0390625 C-40.41019719 189.23377088 -44.71931922 191.41357069 -49.66015625 193.375 C-50.7728186 193.82383545 -50.7728186 193.82383545 -51.90795898 194.28173828 C-73.3869616 202.74154638 -97.5259035 203.51109204 -119.2109375 195.23046875 C-124.14864804 192.98928037 -128.30111013 190.19377638 -132.47265625 186.75 C-133.42398437 186.00169922 -133.42398437 186.00169922 -134.39453125 185.23828125 C-143.94828921 176.84703808 -148.72720077 162.74738632 -149.6484375 150.39257812 C-150.69331312 130.79369691 -147.70635554 113.53708862 -134.22265625 98.5 C-113.70110764 76.67099389 -81.5795252 70.74576285 -52.81005859 69.79980469 C-44.36595852 69.61988027 -35.917769 69.67784801 -27.47265625 69.75 C-27.02670775 45.59733526 -27.02670775 45.59733526 -37.47265625 24.75 C-50.4034092 14.06807365 -68.22055474 14.59016051 -84.06689453 15.97705078 C-98.91047312 17.5983779 -113.46083779 21.19177725 -127.52075195 26.18164062 C-129.47265625 26.75 -129.47265625 26.75 -132.47265625 26.75 C-133.46913347 23.03497813 -134.46286604 19.31928586 -135.44921875 15.6015625 C-136.021228 13.44888645 -136.59644022 11.29703227 -137.18359375 9.1484375 C-138.13657732 5.57129629 -138.54820479 2.43928697 -138.47265625 -1.25 C-98.3524667 -16.52413315 -36.32935495 -33.05799123 0 0 Z M-92.47265625 107.75 C-92.47265625 108.41 -92.47265625 109.07 -92.47265625 109.75 C-93.23191406 109.99363281 -93.99117187 110.23726562 -94.7734375 110.48828125 C-97.85094714 111.92682773 -98.84451797 113.10938782 -100.66015625 115.9375 C-101.14871094 116.67355469 -101.63726563 117.40960937 -102.140625 118.16796875 C-106.64523134 126.89977166 -106.80060616 137.49505411 -104.78515625 146.98828125 C-102.02195473 155.31242584 -98.11579924 160.61279282 -90.28515625 164.625 C-79.99894561 169.3967905 -68.5157578 169.1054242 -57.78515625 165.75 C-50.21650641 162.90270771 -43.20268102 159.22508569 -36.47265625 154.75 C-35.72314194 154.30421097 -34.97362762 153.85842194 -34.20140076 153.39912415 C-29.34510041 150.20964187 -29.34510041 150.20964187 -26.68151855 145.23101807 C-26.43216879 142.23162682 -26.45889616 139.35436324 -26.59375 136.34765625 C-26.60648453 135.26995468 -26.61921906 134.19225311 -26.63233948 133.08189392 C-26.68252511 129.65642521 -26.79539426 126.23635299 -26.91015625 122.8125 C-26.95532185 120.48380075 -26.99638278 118.15501803 -27.03320312 115.82617188 C-27.13216621 110.13228885 -27.28254742 104.44152987 -27.47265625 98.75 C-32.16419147 98.67451738 -36.85535547 98.62078653 -41.54736328 98.58520508 C-43.13564223 98.57033595 -44.7238818 98.55003445 -46.31201172 98.52368164 C-62.86293084 98.25639321 -77.44494627 100.23614501 -92.47265625 107.75 Z " fill="#5382A0" transform="translate(1803.47265625,1395.25)"/>
<path d="M0 0 C15.69193462 16.34685677 16.69734111 36.67622699 16.64086914 58.13549805 C16.64058648 59.65434263 16.64074654 61.17318735 16.64131165 62.69203186 C16.64159654 66.78217132 16.63574988 70.87228097 16.62873769 74.96241355 C16.62245261 79.24917684 16.62189629 83.53594094 16.62071228 87.82270813 C16.61761409 95.92552165 16.60942121 104.02832154 16.59936279 112.13112909 C16.58815453 121.36216193 16.58267936 130.59319545 16.57766736 139.82423341 C16.56723722 158.79949821 16.54891069 177.77474436 16.52734375 196.75 C4.97734375 196.75 -6.57265625 196.75 -18.47265625 196.75 C-20.45265625 186.355 -20.45265625 186.355 -22.47265625 175.75 C-25.72109375 178.225 -25.72109375 178.225 -29.03515625 180.75 C-50.79193313 196.88023064 -74.60021677 203.23689098 -101.59765625 200.0625 C-116.56717725 197.61015526 -130.56902726 191.86857059 -139.7578125 179.41015625 C-150.0207163 163.48979751 -152.20201151 143.51230643 -148.34130859 125.13647461 C-144.36185174 108.9214672 -134.43427444 95.86816588 -120.47265625 86.75 C-91.83477559 70.46961337 -59.59730545 69.47553862 -27.47265625 69.75 C-27.58416959 66.12445665 -27.7143914 62.49980383 -27.84765625 58.875 C-27.87859375 57.86179687 -27.90953125 56.84859375 -27.94140625 55.8046875 C-28.35886557 44.95074524 -29.36534044 33.21820265 -37.19140625 24.9296875 C-50.23387046 14.29259579 -68.19506767 14.64600407 -84.09765625 15.96826172 C-98.92688086 17.59592931 -113.47417078 21.19650912 -127.52075195 26.18164062 C-129.47265625 26.75 -129.47265625 26.75 -132.47265625 26.75 C-133.46913347 23.03497813 -134.46286604 19.31928586 -135.44921875 15.6015625 C-136.021228 13.44888645 -136.59644022 11.29703227 -137.18359375 9.1484375 C-138.13657732 5.57129629 -138.54820479 2.43928697 -138.47265625 -1.25 C-99.29836287 -17.78047586 -35.41486748 -32.22585098 0 0 Z M-98.47265625 112.75 C-105.75214674 121.79151875 -106.57549518 132.5241715 -105.47265625 143.75 C-103.90516021 151.44668714 -100.45780758 157.62332492 -94.47265625 162.75 C-85.27596678 168.66338538 -74.04660514 169.29355777 -63.43847656 167.38378906 C-53.71016289 165.01211198 -44.76357084 160.26298912 -36.47265625 154.75 C-35.72314194 154.30421097 -34.97362762 153.85842194 -34.20140076 153.39912415 C-29.34510041 150.20964187 -29.34510041 150.20964187 -26.68151855 145.23101807 C-26.43216879 142.23162682 -26.45889616 139.35436324 -26.59375 136.34765625 C-26.60648453 135.26995468 -26.61921906 134.19225311 -26.63233948 133.08189392 C-26.68252511 129.65642521 -26.79539426 126.23635299 -26.91015625 122.8125 C-26.95532185 120.48380075 -26.99638278 118.15501803 -27.03320312 115.82617188 C-27.13216621 110.13228885 -27.28254742 104.44152987 -27.47265625 98.75 C-32.16419147 98.67451738 -36.85535547 98.62078653 -41.54736328 98.58520508 C-43.13564223 98.57033595 -44.7238818 98.55003445 -46.31201172 98.52368164 C-64.35773154 98.23225298 -84.92314719 99.33680391 -98.47265625 112.75 Z " fill="#5282A1" transform="translate(1412.47265625,1395.25)"/>
<path d="M0 0 C15.9911042 14.53736745 24.03200263 38.30672788 25.12548828 59.42333984 C25.81616836 78.26606424 23.21468283 95.24907959 17 113 C16.63132812 114.08539063 16.26265625 115.17078125 15.8828125 116.2890625 C12.72036655 125.07848124 8.37565344 133.15409291 3.86035156 141.30517578 C2.86160703 143.16943463 2.86160703 143.16943463 2 146 C1.34 146 0.68 146 0 146 C-0.34804687 147.01320313 -0.34804687 147.01320313 -0.703125 148.046875 C-2.32353483 151.7367239 -4.46526063 154.95013659 -6.75 158.25 C-7.22735596 158.9423877 -7.70471191 159.63477539 -8.1965332 160.34814453 C-13.53505447 167.95752294 -19.47477665 175.04300815 -25.45947266 182.14648438 C-27.49252723 184.59259378 -29.43272028 187.10652336 -31.375 189.625 C-34.34294265 193.37632665 -37.57987868 196.42561563 -41.25390625 199.4765625 C-43.48291058 201.42133138 -45.17910425 203.67678818 -47 206 C-48.65002828 207.35386936 -50.3174387 208.68678142 -52 210 C-53.67085952 211.66246324 -55.33698963 213.32968504 -57 215 C-62.7828315 220.44988059 -68.64894124 225.68463293 -75.02734375 230.4296875 C-77.04893384 231.97331033 -77.04893384 231.97331033 -78.84375 233.87890625 C-81.55219 236.54318691 -84.52990378 238.78720003 -87.5625 241.0625 C-90.88279655 243.55921461 -94.08975172 246.02579022 -97 249 C-98.71917921 250.40811609 -100.44959158 251.80256593 -102.1875 253.1875 C-106.46760568 256.66014511 -110.4030771 260.27848204 -114.234375 264.234375 C-116 266 -116 266 -119.0625 268.5 C-122.80549932 271.68553133 -125.85346067 275.23573515 -129 279 C-129.70253906 279.82628906 -130.40507813 280.65257812 -131.12890625 281.50390625 C-150.75623371 304.95429575 -165.36910903 331.80760254 -162.7265625 363.25390625 C-159.06738845 393.59743442 -142.22019515 419.565873 -125 444 C-93.27843611 489.04936184 -93.27843611 489.04936184 -90 502 C-92.94895082 500.66363695 -95.09700119 499.17858069 -97.43359375 496.9453125 C-98.07594971 496.33655273 -98.71830566 495.72779297 -99.38012695 495.10058594 C-100.05906006 494.44864258 -100.73799316 493.79669922 -101.4375 493.125 C-102.87712048 491.7573032 -104.31723113 490.39012217 -105.7578125 489.0234375 C-106.47356445 488.34249023 -107.18931641 487.66154297 -107.92675781 486.95996094 C-110.8577181 484.18914733 -113.83470683 481.47023469 -116.8125 478.75 C-122.7159495 473.33373279 -128.37597746 467.70513825 -134 462 C-135.6653144 460.33198217 -137.33207784 458.66541023 -139 457 C-140.05216721 455.94800055 -141.1042457 454.89591236 -142.15625 453.84375 C-142.70410156 453.29589844 -143.25195312 452.74804688 -143.81640625 452.18359375 C-148.84375 447.15625 -148.84375 447.15625 -150.46240234 445.53613281 C-151.86989842 444.12997764 -153.28235684 442.72879408 -154.6953125 441.328125 C-160.02682876 435.94238993 -164.76653184 430.12603412 -169.32421875 424.078125 C-171.56714686 421.29668501 -174.06908297 418.86196021 -176.6875 416.4375 C-178 415 -178 415 -179 412 C-179.66 411.67 -180.32 411.34 -181 411 C-182.03264027 409.3533574 -183.02386158 407.68075327 -184 406 C-184.7985047 404.78022347 -185.60518588 403.56577803 -186.41796875 402.35546875 C-203.07464282 377.37949055 -216.34051937 350.18742615 -210.8125 319.375 C-203.57544279 286.82507293 -174.89816223 257.8260632 -149.359375 237.859375 C-147.04184021 236.03297341 -144.86672859 234.11334725 -142.6875 232.125 C-137.89088417 227.81400958 -132.82882109 223.8803289 -127.7421875 219.921875 C-123.96652184 216.98282882 -120.23065719 213.99585278 -116.5 211 C-111.71074671 207.15712241 -106.89968227 203.34483431 -102.0625 199.5625 C-60.63044379 167.2197234 -60.63044379 167.2197234 -26 128 C-25.60377441 127.45923828 -25.20754883 126.91847656 -24.79931641 126.36132812 C-2.17157518 95.32154478 8.53742761 58.93468814 2.97363281 20.54589844 C2.47032797 17.42923402 1.92486141 14.32156523 1.36376953 11.21484375 C0.75238056 7.49234659 0.38340364 3.7521444 0 0 Z " fill="#F7981D" transform="translate(1590,333)"/>
<path d="M0 0 C15.84 0 31.68 0 48 0 C49.46308594 4.70378906 50.92617187 9.40757813 52.43359375 14.25390625 C52.93632813 15.87008347 53.4390625 17.48626068 53.95703125 19.15141296 C56.50536083 27.34463545 59.0513029 35.5385927 61.59375 43.73364258 C62.65482837 47.15319466 63.71604754 50.57270302 64.77734375 53.9921875 C65.0423254 54.84605482 65.30730705 55.69992214 65.58031845 56.57966423 C68.65848917 66.49632637 71.75112365 76.40811139 74.87854004 86.30935669 C95 150.01680207 95 150.01680207 95 164 C95.66 164 96.32 164 97 164 C97.16363037 163.36763428 97.32726074 162.73526855 97.49584961 162.08374023 C99.21683701 155.59073818 101.19790368 149.21931853 103.31079102 142.84399414 C117.16106526 101.00141607 127.44058267 58.35131781 134.36499023 14.8269043 C135.18669579 9.87487253 136.10204109 4.93877398 137 0 C152.18 0 167.36 0 183 0 C182.39640059 7.24319287 181.83726657 13.8820446 180.3203125 20.8828125 C180.15222076 21.68327499 179.98412903 22.48373749 179.8109436 23.30845642 C179.25882774 25.9161987 178.69351203 28.52078581 178.125 31.125 C177.92781372 32.03539032 177.73062744 32.94578064 177.52746582 33.88375854 C164.24737423 94.9723122 145.20936244 154.21304805 119 211 C100.85 211 82.7 211 64 211 C36.67630915 123.1391541 36.67630915 123.1391541 25.40722656 86.05151367 C24.71160649 83.76220158 24.01596848 81.47289493 23.3203125 79.18359375 C22.97863037 78.05894211 22.63694824 76.93429047 22.28491211 75.77555847 C19.66335648 67.15651084 17.01676196 58.54534334 14.36215973 49.93643379 C13.68522908 47.74063183 13.00885672 45.54465876 12.33270264 43.34861755 C12.11193935 42.6316335 11.89117607 41.91464945 11.66372299 41.17593861 C11.22104729 39.73819005 10.77839226 38.30043514 10.33575821 36.86267376 C9.04587227 32.67412123 7.75235137 28.48671292 6.45620537 24.30009365 C5.8529679 22.34929523 5.25163256 20.39792292 4.65115356 18.4462738 C3.9165466 16.05883595 3.17880808 13.67235871 2.43746948 11.28700256 C2.11440826 10.23387375 1.79134705 9.18074493 1.45849609 8.09570312 C1.17525482 7.17889771 0.89201355 6.26209229 0.60018921 5.31750488 C0 3 0 3 0 0 Z " fill="#5382A0" transform="translate(1453,1381)"/>
<path d="M0 0 C1.23234375 -0.02449219 2.4646875 -0.04898437 3.734375 -0.07421875 C11.72774379 -0.09967534 18.08335761 1.0691308 25.375 4.375 C25.375 5.035 25.375 5.695 25.375 6.375 C24.78823486 6.40940186 24.20146973 6.44380371 23.59692383 6.47924805 C-1.2813761 8.03700976 -25.03798872 13.44125308 -47.5 24.5 C-48.13591064 24.81235596 -48.77182129 25.12471191 -49.42700195 25.4465332 C-54.80854984 28.22235515 -59.77773082 31.00264629 -61.875 36.875 C-61.99960832 40.56761341 -61.99960832 40.56761341 -59.0390625 42.91015625 C-26.81032825 67.89403729 39.94168999 66.36649981 79.125 69.0625 C80.44985916 69.15390762 80.44985916 69.15390762 81.80148315 69.24716187 C104.3565683 70.77883451 126.89410181 71.53504989 149.5 71.54296875 C151.7458498 71.54620362 153.99169941 71.54956909 156.23754883 71.55305481 C160.9199268 71.5589845 165.60228652 71.56090158 170.28466797 71.56030273 C174.96862718 71.56022225 179.65248698 71.56705146 184.33642578 71.58081055 C226.12561942 71.70147065 267.81762752 70.68971688 309.5 67.5625 C311.21159302 67.43702789 311.21159302 67.43702789 312.95776367 67.309021 C410.89151513 65.12869987 410.89151513 65.12869987 496.8125 28.875 C499.4613883 24.63677872 500.64562423 21.89049567 499.75 16.875 C498.30814793 13.2048311 496.6906114 10.53966892 494.375 7.375 C501.95610382 9.27027595 507.94808729 14.0002457 512.375 20.375 C513.91097454 23.44694908 513.6015038 25.97744293 513.375 29.375 C509.08482983 41.97737487 495.52832065 47.81709648 484.46875 53.32421875 C407.79964304 90.52173039 309.35293389 94.68596565 211.3125 97.9375 C210.03765747 97.96876984 210.03765747 97.96876984 208.73706055 98.00067139 C190.61427726 98.43558128 172.50189101 98.5824115 154.375 98.375 C153.62077759 98.36639954 152.86655518 98.35779907 152.08947754 98.34893799 C77.54566215 97.43677844 2.98956786 90.92132358 -70.625 79.1875 C-71.35342102 79.07302521 -72.08184204 78.95855042 -72.83233643 78.84060669 C-85.20256863 76.87675262 -98.02772806 74.73612023 -109.25 68.9375 C-110.35601563 68.38191406 -111.46203125 67.82632812 -112.6015625 67.25390625 C-116.81741901 64.63397475 -120.03056068 62.15831796 -121.625 57.375 C-122.39275455 51.01360514 -121.23811744 47.66740462 -117.43359375 42.52734375 C-92.54029879 12.90270979 -36.45723499 0.03837604 0 0 Z " fill="#5282A0" transform="translate(1282.625,1106.625)"/>
<path d="M0 0 C15.51 0 31.02 0 47 0 C47.04424093 31.75409802 47.081111 63.50816586 47.10213066 95.26228516 C47.10463153 99.02658209 47.10722023 102.79087895 47.10986328 106.55517578 C47.1103879 107.30445663 47.11091252 108.05373747 47.11145304 108.8257238 C47.12011278 120.89598946 47.13585781 132.96623571 47.15430559 145.03648993 C47.1731289 157.45772024 47.18414273 169.87894051 47.18817699 182.30018449 C47.19089653 189.94064208 47.19942717 197.5810448 47.21583293 205.22148547 C47.22783672 211.11880169 47.22888053 217.01609105 47.22621536 222.91341972 C47.22675767 225.30437237 47.23062737 227.69532744 47.23841095 230.08626747 C47.47427184 306.3952464 47.47427184 306.3952464 21.03515625 333.125 C11.18447859 342.64355988 0.14937815 349.76460486 -12 356 C-12.94746094 356.48855469 -13.89492187 356.97710938 -14.87109375 357.48046875 C-20.2230552 360.05538616 -20.2230552 360.05538616 -22.97265625 359.859375 C-25.78955517 358.6653138 -27.188817 356.93313301 -29.1875 354.625 C-29.96609375 353.7278125 -30.7446875 352.830625 -31.546875 351.90625 C-32.35640625 350.9471875 -33.1659375 349.988125 -34 349 C-35.24523438 347.53046875 -35.24523438 347.53046875 -36.515625 346.03125 C-43.24028884 337.96165339 -43.24028884 337.96165339 -45 334 C-43.65808594 333.18208984 -43.65808594 333.18208984 -42.2890625 332.34765625 C-34.51087282 327.52960482 -27.50541583 322.49440836 -21 316 C-20.20722656 315.21882813 -19.41445312 314.43765625 -18.59765625 313.6328125 C0.85815449 293.36769183 -0.70271142 264.82446202 -0.68115234 238.63037109 C-0.67183626 236.01690873 -0.66166514 233.4034493 -0.65071106 230.78999329 C-0.62861152 225.19998074 -0.61349517 219.60998596 -0.60334396 214.01993942 C-0.58865723 205.93802563 -0.56309365 197.85617387 -0.53501268 189.77429684 C-0.48972448 176.65683944 -0.45303611 163.53937301 -0.421875 150.421875 C-0.39161535 137.6917157 -0.35723147 124.96157836 -0.31738281 112.23144531 C-0.31492126 111.44462051 -0.31245972 110.6577957 -0.30992357 109.84712772 C-0.29754754 105.89922005 -0.28509128 101.95131263 -0.27259517 98.00340533 C-0.16929698 65.33563272 -0.08054344 32.66783668 0 0 Z " fill="#5282A0" transform="translate(1186,1307)"/>
<path d="M0 0 C-3.28737411 2.00712206 -6.58057828 4.00447034 -9.875 6 C-10.81214844 6.57234375 -11.74929688 7.1446875 -12.71484375 7.734375 C-13.61074219 8.27578125 -14.50664063 8.8171875 -15.4296875 9.375 C-16.67081299 10.12910156 -16.67081299 10.12910156 -17.93701172 10.8984375 C-20 12 -20 12 -22 12 C-22 12.66 -22 13.32 -22 14 C-23.14082031 14.54914062 -24.28164062 15.09828125 -25.45703125 15.6640625 C-30.05069671 17.96442339 -34.36228235 20.60903298 -38.6875 23.375 C-39.49622559 23.88885254 -40.30495117 24.40270508 -41.13818359 24.93212891 C-50.04562887 30.62001565 -58.83559604 36.48624953 -67.59863281 42.39355469 C-69.25179399 43.49947178 -70.91314311 44.5932148 -72.58105469 45.67675781 C-73.39735352 46.20881836 -74.21365234 46.74087891 -75.0546875 47.2890625 C-75.78929199 47.7629541 -76.52389648 48.2368457 -77.28076172 48.72509766 C-79.13981879 49.90291818 -79.13981879 49.90291818 -80 52 C-81.64415991 52.93951995 -83.29046892 53.8755481 -84.94921875 54.7890625 C-91.40084897 58.47141042 -91.40084897 58.47141042 -96 64 C-97.66666667 65 -99.33333333 66 -101 67 C-103.14324106 68.69867633 -105.23733768 70.4102752 -107.3125 72.1875 C-107.88355469 72.6736377 -108.45460938 73.15977539 -109.04296875 73.66064453 C-113.58594557 77.56508643 -117.85003036 81.68003161 -122 86 C-122.804375 86.78375 -123.60875 87.5675 -124.4375 88.375 C-125.283125 89.24125 -126.12875 90.1075 -127 91 C-127.65613281 91.67160156 -128.31226563 92.34320312 -128.98828125 93.03515625 C-142.89306331 107.80448434 -151.72788708 124.52909801 -151.3359375 145.12890625 C-150.2693981 167.48656906 -134.35249139 187.47071437 -121.5546875 204.6484375 C-108.26118979 222.5203604 -98.68276425 240.05307492 -101 263 C-102.4256133 271.97537023 -105.42350337 281.12344458 -110 289 C-110.66 289.33 -111.32 289.66 -112 290 C-113.17486497 292.62616876 -114.09014862 295.27044585 -115 298 C-116.63309517 299.69957515 -118.30631488 301.36079706 -120 303 C-120.92867761 303.9977255 -121.84907312 305.00321389 -122.76171875 306.015625 C-131.51594432 315.70482569 -140.68888342 324.22456208 -151.23828125 331.95703125 C-153.03133406 333.28343383 -154.79350101 334.65303654 -156.515625 336.0703125 C-159.05786025 338.04494177 -161.59796108 339.55210696 -164.4375 341.0625 C-165.39140625 341.57167969 -166.3453125 342.08085938 -167.328125 342.60546875 C-170.20305444 344.10598017 -173.08388071 345.58134737 -176 347 C-174.54343449 343.56830115 -172.68387826 341.61466212 -169.9375 339.125 C-156.93634976 326.39601555 -148.54300678 308.62924155 -147.8671875 290.421875 C-148.27503881 279.72177593 -151.50866577 270.13616718 -157 261 C-157 260.34 -157 259.68 -157 259 C-157.66 259 -158.32 259 -159 259 C-160.78305524 256.36107824 -161.99059621 254.02821137 -163 251 C-163.66 251 -164.32 251 -165 251 C-166.5078125 249.3203125 -166.5078125 249.3203125 -168.125 247.125 C-168.66382813 246.40570312 -169.20265625 245.68640625 -169.7578125 244.9453125 C-171 243 -171 243 -171 241 C-171.66 241 -172.32 241 -173 241 C-174.38525391 239.31030273 -174.38525391 239.31030273 -175.9765625 236.93359375 C-176.85356812 235.62745117 -176.85356812 235.62745117 -177.74829102 234.29492188 C-178.36760498 233.35197266 -178.98691895 232.40902344 -179.625 231.4375 C-180.25656006 230.48037109 -180.88812012 229.52324219 -181.53881836 228.53710938 C-201 198.70978312 -201 198.70978312 -201 185 C-201.66 184.67 -202.32 184.34 -203 184 C-203.49480861 181.59926191 -203.8523379 179.30368638 -204.125 176.875 C-204.2077417 176.1543335 -204.2904834 175.43366699 -204.37573242 174.69116211 C-207.43147906 145.95206907 -199.6516908 120.04087631 -181.69384766 97.46704102 C-171.24659157 84.82877781 -159.26693162 73.60996996 -146 64 C-144.99195313 63.25878906 -143.98390625 62.51757812 -142.9453125 61.75390625 C-104.13779021 34.05540751 -59.24247516 15.97417229 -14 1.8125 C-13.04416016 1.50844238 -12.08832031 1.20438477 -11.10351562 0.89111328 C-10.22373047 0.62411621 -9.34394531 0.35711914 -8.4375 0.08203125 C-7.67308594 -0.15281982 -6.90867187 -0.3876709 -6.12109375 -0.62963867 C-3.75972472 -1.04195414 -2.25780158 -0.74396098 0 0 Z " fill="#F7981D" transform="translate(1705,521)"/>
<path d="M0 0 C-0.48210937 0.38671875 -0.96421875 0.7734375 -1.4609375 1.171875 C-2.09257813 1.69265625 -2.72421875 2.2134375 -3.375 2.75 C-4.00148438 3.26046875 -4.62796875 3.7709375 -5.2734375 4.296875 C-8.05675753 7.04241241 -8.98112918 9.09420065 -9.0625 13 C-7.81213713 16.53043634 -6.37572213 17.52031612 -3.05078125 19.1328125 C-2.03564453 19.56207031 -2.03564453 19.56207031 -1 20 C-0.39542969 20.26554687 0.20914062 20.53109375 0.83203125 20.8046875 C14.80104348 26.14983222 31.33923356 26.83503371 46.125 28.1875 C47.53533005 28.31682419 47.53533005 28.31682419 48.97415161 28.44876099 C84.61712921 31.60846158 121.53114171 32.25162229 157 27 C158.5814829 26.77204382 160.16303003 26.54453298 161.74462891 26.31738281 C181.2174302 23.54814689 181.2174302 23.54814689 200.57910156 20.109375 C201.30940582 19.96564453 202.03971008 19.82191406 202.79214478 19.67382812 C204.78462053 19.27585451 206.77449825 18.86493581 208.76416016 18.453125 C214.23832072 17.68656079 217.2500177 19.52908445 222.06640625 22.09765625 C223.27814884 22.73771081 224.49006996 23.37742745 225.70214844 24.0168457 C226.64858215 24.51868881 226.64858215 24.51868881 227.61413574 25.03067017 C237.7729538 30.41065571 247.90366271 35.55436833 258.62719727 39.74047852 C263.90966544 41.81933087 263.90966544 41.81933087 265 44 C259.60248098 46.82027394 254.30597144 49.09690469 248.5234375 50.98828125 C247.33115036 51.38444893 247.33115036 51.38444893 246.11477661 51.78862 C243.5378797 52.63952407 240.95724882 53.47798549 238.375 54.3125 C237.48562744 54.60068604 236.59625488 54.88887207 235.67993164 55.18579102 C202.32342673 65.94200114 168.00986758 72.76504286 133 75 C131.68515625 75.08459473 131.68515625 75.08459473 130.34375 75.17089844 C124.23176744 75.54623458 118.12056159 75.81390184 112 76 C111.26910156 76.02336426 110.53820313 76.04672852 109.78515625 76.07080078 C83.4940131 76.78838015 56.88016058 74.4790965 31 70 C29.67790527 69.77207764 29.67790527 69.77207764 28.32910156 69.53955078 C2.95035225 65.01299025 -27.94859537 57.97513729 -44 36 C-45.53122827 31.40631519 -45.56033252 27.58211535 -43.9375 23 C-38.15070213 14.03979685 -11.46910388 -5.73455194 0 0 Z " fill="#5382A0" transform="translate(1379,1041)"/>
<path d="M0 0 C-1 2 -1 2 -3.29614258 2.77099609 C-4.82984497 3.14345459 -4.82984497 3.14345459 -6.39453125 3.5234375 C-7.56008545 3.81597412 -8.72563965 4.10851074 -9.92651367 4.40991211 C-10.55770111 4.56603973 -11.18888855 4.72216736 -11.83920288 4.88302612 C-57.29896744 14.05435799 -57.29896744 14.05435799 -94 38 C-94.83538368 41.23785028 -94.83538368 41.23785028 -93 44 C-39.76009241 80.9419767 168.32934966 51.88535355 284.1640625 35.26171875 C284.86582611 35.13328079 285.56758972 35.00484283 286.2906189 34.87251282 C290.5752889 34.11797415 294.65297135 33.88612407 299 34 C296.34868514 35.76754324 293.81050428 37.12202231 290.94921875 38.50390625 C289.4485083 39.23734253 289.4485083 39.23734253 287.91748047 39.9855957 C285.73040527 41.05334466 283.54322776 42.12088406 281.35595703 43.18823242 C275.61548113 46.03642098 270.46815672 48.94089987 265.375 52.8125 C254.509549 60.06486127 240.6375732 61.5607598 228 64 C226.98691772 64.1985257 226.98691772 64.1985257 225.95336914 64.40106201 C139.22886478 81.39521968 48.84228399 85.1732066 -157.15234375 58.58984375 C-159.42983578 56.63014131 -160.66348756 54.68140427 -162 52 C-162 47.49078314 -160.55384003 44.92266299 -157.63330078 41.55004883 C-154.50111814 38.57751854 -150.76407457 36.75130261 -146.9375 34.8125 C-146.02701904 34.34545654 -145.11653809 33.87841309 -144.1784668 33.3972168 C-109.19799931 15.91429319 -70.74655424 5.54351092 -32 1 C-30.92621094 0.86851562 -29.85242187 0.73703125 -28.74609375 0.6015625 C-19.20788341 -0.38011701 -9.57590251 -0.08516119 0 0 Z " fill="#5282A0" transform="translate(1396,836)"/>
<path d="M0 0 C-0.45890625 0.42410156 -0.9178125 0.84820313 -1.390625 1.28515625 C-6.46461612 6.13529482 -10.96426035 10.7466528 -11.6875 18.0625 C-10.90219504 22.56015566 -10.06043328 24.01146827 -6.41503906 26.59448242 C2.63517981 31.86157806 13.48524179 32.87257583 23.71362305 33.90087891 C25.87792563 34.11899613 28.03933716 34.35643423 30.20117188 34.59765625 C55.22177074 37.31010102 80.23291371 38.38534384 105.38405991 38.31805801 C107.54336369 38.3123861 109.70265953 38.30958558 111.86196899 38.30697632 C133.61116247 38.26883617 155.2023794 37.74582555 176.82543945 35.25 C179.07621003 34.99123846 181.32798142 34.74302897 183.58007812 34.49609375 C188.36969117 33.96537946 193.15441712 33.39902938 197.9375 32.8125 C198.72489563 32.71643463 199.51229126 32.62036926 200.32354736 32.52139282 C210.45064022 31.26064671 220.41727982 29.56422887 230.4140625 27.51171875 C233.59169367 26.88374973 236.77005883 26.25960256 239.94851685 25.63583374 C242.99228058 25.01433787 246.01354687 24.32119678 249.04077148 23.62426758 C263.41179867 20.61281722 263.41179867 20.61281722 269.18164062 24.09375 C272.25613986 26.35309885 274.95392188 28.92730182 277.61630249 31.65283203 C280.44881316 34.41056457 283.91076152 36.16168317 287.375 38 C288.32439453 38.53173828 288.32439453 38.53173828 289.29296875 39.07421875 C293.7279299 41.50396325 298.23544928 43.30969376 303 45 C302 47 302 47 299.65625 47.8503418 C298.6146875 48.13047119 297.573125 48.41060059 296.5 48.69921875 C295.32042725 49.01777832 294.14085449 49.33633789 292.92553711 49.66455078 C291.61730622 50.0066122 290.3087842 50.34756177 289 50.6875 C287.99962204 50.95019684 287.99962204 50.95019684 286.97903442 51.21820068 C246.97325964 61.69388463 206.18272455 68.39167903 165 72 C164.31131836 72.06058594 163.62263672 72.12117187 162.91308594 72.18359375 C102.91986702 77.36783734 5.78720661 85.68048364 -44.125 45.9375 C-48.01172177 42.29189 -49.80264464 38.8419834 -50.375 33.5 C-49.51540227 25.47708785 -44.66068749 21.06867304 -38.6875 16.1875 C-29.81237254 9.71015557 -19.33720474 5.33805951 -9.125 1.4375 C-8.44115234 1.17388672 -7.75730469 0.91027344 -7.05273438 0.63867188 C-2.25011455 -1.12505728 -2.25011455 -1.12505728 0 0 Z " fill="#5282A0" transform="translate(1357,941)"/>
<path d="M0 0 C0.33 0 0.66 0 1 0 C0.63910102 10.82696952 -4.12169016 20.00360271 -11.57421875 27.79296875 C-65.55061869 76.90193166 -163.69484293 79.91958115 -232.875 84.6875 C-233.75514771 84.74843842 -234.63529541 84.80937683 -235.54211426 84.87216187 C-241.69248678 85.29188616 -247.84481663 85.6586703 -254 86 C-255.26623199 86.07418655 -255.26623199 86.07418655 -256.55804443 86.14987183 C-278.23896859 87.38029459 -299.96837101 87.18733781 -321.67578125 87.18530273 C-326.10974254 87.18522205 -330.54359923 87.19208471 -334.97753906 87.20581055 C-372.19940462 87.31906928 -409.3586185 86.65575411 -446.4375 83.125 C-447.35873657 83.04007294 -448.27997314 82.95514587 -449.22912598 82.86764526 C-522.66205534 76.08364293 -522.66205534 76.08364293 -552 61 C-552 60.34 -552 59.68 -552 59 C-551.41945358 59.07778687 -550.83890717 59.15557373 -550.24076843 59.23571777 C-535.78247702 61.1656737 -521.31652322 62.94989539 -506.8125 64.5 C-505.3233609 64.65958191 -505.3233609 64.65958191 -503.80413818 64.8223877 C-488.76285126 66.42043682 -473.71651454 67.73192362 -458.625 68.75 C-457.76057281 68.80889404 -456.89614563 68.86778809 -456.00552368 68.9284668 C-450.0059409 69.33124965 -444.00445185 69.67865084 -438 70 C-436.70968872 70.0725853 -436.70968872 70.0725853 -435.39331055 70.14663696 C-415.03641174 71.25889949 -394.65990142 71.1874296 -374.27929688 71.18530273 C-370.29552596 71.18522224 -366.31187193 71.19205645 -362.328125 71.20581055 C-325.0953737 71.33210545 -287.92537194 70.32307672 -250.8125 67.1875 C-249.79578217 67.10385193 -248.77906433 67.02020386 -247.73153687 66.934021 C-201.47947215 63.11177122 -155.34055515 57.01283963 -110 47 C-109.32855957 46.85173767 -108.65711914 46.70347534 -107.96533203 46.55072021 C-48.22462051 33.98042351 -48.22462051 33.98042351 0 0 Z " fill="#5282A0" transform="translate(1835,1161)"/>
<path d="M0 0 C12.683828 13.36835206 18.81376545 28.65319807 18.33984375 47.1171875 C16.16652815 71.94794276 1.78813279 92.73877756 -16.83935547 108.5625 C-42.30511012 129.57664121 -72.87160411 142.76619756 -104 153 C-105.02786621 153.33854004 -106.05573242 153.67708008 -107.11474609 154.02587891 C-109.90407243 154.93295071 -112.69879911 155.81786569 -115.5 156.6875 C-116.31251221 156.9438623 -117.12502441 157.20022461 -117.9621582 157.46435547 C-121.73095431 158.5872879 -124.24363417 159.17984414 -128 158 C-124.58949175 152.80524765 -120.30119232 150.70254771 -114.9375 147.9375 C-78.9209422 128.71138088 -36.13453953 100.39181633 -23.38330078 59.26074219 C-20.59004585 48.91996793 -21.21369491 37.48584286 -23 27 C-23.66 26.67 -24.32 26.34 -25 26 C-25.37125 25.05125 -25.7425 24.1025 -26.125 23.125 C-31.44585892 10.3339697 -41.75852786 1.45175212 -54.3125 -3.9375 C-61.68530359 -6.8064152 -68.36006379 -8.41192861 -76.25 -8.4375 C-77.11028809 -8.44209229 -77.97057617 -8.44668457 -78.85693359 -8.45141602 C-87.09349446 -8.31271551 -94.51751677 -6.39638736 -102.3515625 -3.99609375 C-106 -3 -106 -3 -108 -4 C-99.64729884 -15.60097383 -86.40779338 -18.6270572 -73 -21 C-47.04783182 -25.15754384 -19.05608141 -18.63261294 0 0 Z " fill="#5382A0" transform="translate(1818,849)"/>
<path d="M0 0 C1.98 0 3.96 0 6 0 C9 6.625 9 6.625 9 10 C9.66 10 10.32 10 11 10 C11.12375 9.278125 11.2475 8.55625 11.375 7.8125 C11.9904931 5.04278106 12.88444374 2.6029646 14 0 C15.98 0 17.96 0 20 0 C20 5.94 20 11.88 20 18 C18.68 18 17.36 18 16 18 C15.67 15.69 15.34 13.38 15 11 C14.01 13.31 13.02 15.62 12 18 C10.68 18 9.36 18 8 18 C7.01 15.36 6.02 12.72 5 10 C4.67 12.64 4.34 15.28 4 18 C2.68 18 1.36 18 0 18 C0 12.06 0 6.12 0 0 Z " fill="#5282A1" transform="translate(1839,1381)"/>
<path d="M0 0 C4.62 0 9.24 0 14 0 C14 1.32 14 2.64 14 4 C12.35 4 10.7 4 9 4 C9 8.62 9 13.24 9 18 C7.68 18 6.36 18 5 18 C5 13.38 5 8.76 5 4 C3.35 4 1.7 4 0 4 C0 2.68 0 1.36 0 0 Z " fill="#5382A1" transform="translate(1823,1381)"/>
</svg>
