<?xml version="1.0" encoding="UTF-8"?>
<svg version="1.1" xmlns="http://www.w3.org/2000/svg" width="1024" height="1020">
<path d="M0 0 C3.47247434 0.01141591 6.94464254 0.00457712 10.41710663 -0.00687885 C34.78126214 -0.07489958 59.08512249 0.95346852 83.28564453 3.94824219 C83.94689331 4.02966461 84.60814209 4.11108704 85.28942871 4.19497681 C135.11038482 10.42734493 186.69420346 24.0205076 224.03564453 59.26074219 C224.85806641 60.00710937 225.68048828 60.75347656 226.52783203 61.52246094 C243.49674025 77.51341027 255.26589457 101.18462109 256.12319517 124.65792048 C256.15349591 127.38972343 256.15160899 130.1196989 256.13812256 132.85163879 C256.13701013 133.8945414 256.1358977 134.937444 256.13475156 136.01194972 C256.12972687 139.49440433 256.11737721 142.97679292 256.10498047 146.45922852 C256.099745 148.96156739 256.09491835 151.46390716 256.09046936 153.96624756 C256.07683562 160.75817746 256.05641447 167.55006622 256.03390408 174.34197068 C256.01984476 178.59154531 256.00735402 182.84112364 255.99515533 187.09070396 C255.96104479 198.88024166 255.92508878 210.66977016 255.882061 222.45927906 C255.87931296 223.2128945 255.87656491 223.96650995 255.8737336 224.74296222 C255.86815882 226.27044149 255.86258404 227.79792076 255.85700926 229.32540003 C255.85286292 230.46261437 255.85286292 230.46261437 255.84863281 231.62280273 C255.84447903 232.76142286 255.84447903 232.76142286 255.84024134 233.92304542 C255.79580999 246.19931892 255.76469938 258.47558652 255.73943302 270.75191299 C255.71323971 283.38697228 255.67591694 296.0219595 255.62761331 308.65695399 C255.60079203 315.7383196 255.57855402 322.81962978 255.56859589 329.90104103 C255.55915296 336.57175119 255.53436856 343.24223804 255.4996624 349.91287231 C255.48935272 352.34790635 255.48395317 354.78296745 255.48409462 357.2180233 C255.4809378 374.82833584 254.82450936 392.18463408 248.84814453 408.94824219 C248.54626221 409.81707031 248.24437988 410.68589844 247.93334961 411.58105469 C238.90400868 436.80117743 222.85027521 457.02304034 200.03564453 471.26074219 C198.67826172 472.16179687 198.67826172 472.16179687 197.29345703 473.08105469 C168.47226195 491.28821192 133.29729365 494.73298548 100.1237793 494.64550781 C97.48644825 494.64962298 94.84914526 494.65493731 92.21182251 494.66178894 C86.57441092 494.67424379 80.93707603 494.67636677 75.29965401 494.6714325 C67.12536811 494.6645592 58.95119551 494.67725604 50.77692997 494.69493967 C37.47669854 494.72346951 24.17647946 494.74106927 10.8762207 494.74951172 C10.08341046 494.7500189 9.29060022 494.75052608 8.47376543 494.75104862 C2.84855862 494.75457466 -2.77664838 494.75770443 -8.40185547 494.76074219 C-14.82609068 494.76421173 -21.25032571 494.76786135 -27.67456055 494.77197266 C-28.46608029 494.77247527 -29.25760002 494.77297789 -30.07310521 494.77349573 C-43.32894532 494.78227691 -56.58474315 494.80278429 -69.84055477 494.83145475 C-77.98223186 494.84850612 -86.12378847 494.85527808 -94.265481 494.8481487 C-99.85339024 494.84393051 -105.44122402 494.85044251 -111.02911573 494.86494744 C-114.2380573 494.87290518 -117.44677612 494.87459442 -120.65572166 494.86612511 C-139.54782106 494.82013686 -158.69831026 495.39403493 -176.90185547 501.01074219 C-177.75900146 501.26605713 -178.61614746 501.52137207 -179.49926758 501.78442383 C-195.92380778 506.86444743 -210.84194513 515.18797224 -223.96435547 526.26074219 C-224.52767578 526.70160156 -225.09099609 527.14246094 -225.67138672 527.59667969 C-252.1137117 548.3877426 -264.82076237 586.71819104 -268.74416256 618.73417091 C-269.21344599 624.11889484 -269.14521789 629.5271931 -269.16967773 634.92871094 C-269.1792721 636.29933456 -269.18928306 637.66995532 -269.19967651 639.04057312 C-269.22656292 642.74037619 -269.24765984 646.44019179 -269.2676785 650.14003754 C-269.28963916 654.01444243 -269.31697824 657.88880939 -269.34373474 661.76318359 C-269.393526 669.09045998 -269.4385148 676.41775758 -269.4817571 683.74507523 C-269.53124589 692.0909553 -269.58612062 700.43679729 -269.6414367 708.78264046 C-269.7550483 725.94197244 -269.86193217 743.10133985 -269.96435547 760.26074219 C-282.69179986 760.35395412 -295.41916132 760.4247648 -308.1468792 760.46799088 C-314.05865523 760.48875075 -319.97019552 760.51685344 -325.88183594 760.5625 C-331.6007019 760.60637519 -337.31934296 760.62996619 -343.03836441 760.64025116 C-345.20615294 760.64756847 -347.37393098 760.66185421 -349.54162216 760.68366241 C-385.6677724 761.03222854 -415.03480621 748.07515761 -440.97607422 723.24121094 C-481.87913103 683.03470571 -496.1667599 619.43309125 -500.96435547 564.26074219 C-501.06586914 563.14103027 -501.16738281 562.02131836 -501.27197266 560.86767578 C-508.20981432 480.9949529 -505.9622818 381.28634418 -451.90966797 316.51074219 C-451.26771484 315.76824219 -450.62576172 315.02574219 -449.96435547 314.26074219 C-448.93955078 313.05417969 -448.93955078 313.05417969 -447.89404297 311.82324219 C-423.33451537 283.65460838 -389.36545846 266.73925999 -352.18421018 263.46753895 C-346.14347825 263.07956995 -340.10079585 263.14780796 -334.05049133 263.17845154 C-332.56432022 263.1821526 -331.07814793 263.18540002 -329.59197491 263.18823677 C-325.53504082 263.19727765 -321.47815291 263.21270086 -317.42124331 263.22921956 C-313.03626644 263.24593728 -308.6512743 263.25666028 -304.26628113 263.26812744 C-296.67790234 263.28878471 -289.08954322 263.31320325 -281.50118446 263.34020805 C-270.52981768 263.37924653 -259.55843933 263.41256341 -248.58704986 263.44450331 C-230.7848261 263.49648364 -212.98262007 263.55306334 -195.18041992 263.61254883 C-177.89168995 263.6703087 -160.60295524 263.72589412 -143.31420898 263.77856445 C-142.24775453 263.78181417 -141.18130007 263.78506389 -140.08252881 263.78841209 C-134.73220838 263.80470229 -129.38188783 263.82094985 -124.03156722 263.8371762 C-79.67580795 263.97175267 -35.3200763 264.11408365 9.03564453 264.26074219 C9.03564453 253.04074219 9.03564453 241.82074219 9.03564453 230.26074219 C-72.80435547 230.26074219 -154.64435547 230.26074219 -238.96435547 230.26074219 C-239.04685547 209.30574219 -239.12935547 188.35074219 -239.21435547 166.76074219 C-239.25077148 160.17169922 -239.2871875 153.58265625 -239.32470703 146.79394531 C-239.34277344 138.67773437 -239.34277344 138.67773437 -239.34613037 134.86462402 C-239.35222806 132.2308422 -239.36466135 129.5978589 -239.38665771 126.9642334 C-239.60018903 100.22279103 -236.52862901 79.62674765 -217.96435547 59.26074219 C-217.31337891 58.51695313 -216.66240234 57.77316406 -215.99169922 57.00683594 C-165.83582118 2.98537963 -68.39252628 -0.22660812 0 0 Z M-165.96435547 95.26074219 C-173.96136122 106.11632674 -177.32988138 118.46391035 -175.33935547 131.88574219 C-172.68842543 143.96220123 -165.49874051 153.63565421 -155.40185547 160.69824219 C-144.78033096 167.27170316 -132.88871724 169.01393042 -120.66357422 166.61230469 C-109.22560706 163.1408594 -99.60876258 156.1167074 -93.49560547 145.77636719 C-87.79066083 134.83083388 -85.84961248 123.06373077 -89.08935547 110.94824219 C-91.76007742 103.38959514 -95.926249 96.56249421 -101.96435547 91.26074219 C-102.47611328 90.76960938 -102.98787109 90.27847656 -103.51513672 89.77246094 C-111.42889801 82.44086139 -120.8608697 79.76813403 -131.46435547 79.01074219 C-144.92197806 79.97200094 -156.8456256 85.07454196 -165.96435547 95.26074219 Z " fill="#3672A4" transform="translate(502.96435546875,-0.2607421875)"/>
<path d="M0 0 C12.64890042 -0.06981521 25.29775424 -0.1229704 37.94680882 -0.15543652 C43.82162391 -0.17102638 49.69630622 -0.19214142 55.57104492 -0.22631836 C61.25098394 -0.25915151 66.93079601 -0.27690311 72.61082268 -0.28463173 C74.76711968 -0.29013253 76.92341051 -0.30087296 79.07965279 -0.31719017 C109.8550908 -0.54060911 137.34670612 7.716914 161 28 C161.51643066 28.43957031 162.03286133 28.87914062 162.56494141 29.33203125 C169.85453991 35.5873405 176.19396654 42.32737318 182 50 C182.77730469 51.0003125 183.55460938 52.000625 184.35546875 53.03125 C217.54647871 96.7760834 228.82279986 156.2670926 232 210 C232.04130035 210.68361603 232.08260071 211.36723206 232.12515259 212.07156372 C232.89992009 225.15557826 233.20308261 238.20666078 233.1875 251.3125 C233.18659363 252.7402475 233.18659363 252.7402475 233.18566895 254.19683838 C233.05836151 328.69187225 220.71118186 405.31647113 166.71484375 460.328125 C142.03872004 483.86144367 108.31922985 496.38512461 74.54827881 496.24050903 C73.01587009 496.24138285 71.48346166 496.24313706 69.95105481 496.24568737 C65.77094734 496.2501303 61.5909436 496.24219959 57.41084933 496.23213124 C52.89159081 496.22345468 48.37233764 496.22641987 43.85307312 496.22793579 C36.03334937 496.22898199 28.21365911 496.22273314 20.39394379 496.21146011 C9.08809971 496.19517208 -2.21772825 496.18999373 -13.52358279 496.18748413 C-31.86875837 496.18311221 -50.21391612 496.16981675 -68.55908203 496.15087891 C-86.37451081 496.13250709 -104.18993474 496.11835696 -122.00537109 496.10986328 C-123.10441978 496.10933783 -124.20346847 496.10881239 -125.33582166 496.10827102 C-130.84969631 496.10566085 -136.36357099 496.10313346 -141.8774457 496.10064721 C-187.58497678 496.07993036 -233.29248607 496.0441662 -279 496 C-279 507.22 -279 518.44 -279 530 C-197.16 530 -115.32 530 -31 530 C-30.9175 550.975625 -30.835 571.95125 -30.75 593.5625 C-30.71358398 600.16064697 -30.67716797 606.75879395 -30.63964844 613.55688477 C-30.62158203 621.6776123 -30.62158203 621.6776123 -30.6182251 625.49156189 C-30.61212312 628.12871934 -30.59967643 630.76508238 -30.57769775 633.40208435 C-30.35025421 661.94092218 -30.35025421 661.94092218 -35 674 C-35.31420898 674.8280867 -35.62841797 675.6561734 -35.95214844 676.50935364 C-36.72933196 678.44655869 -37.59818959 680.27464206 -38.5625 682.125 C-38.89983154 682.78258301 -39.23716309 683.44016602 -39.5847168 684.11767578 C-56.55563725 715.69662185 -93.54807506 732.81328589 -126.16992188 742.98876953 C-147.8277762 749.4576112 -169.91280371 753.38623626 -192.3125 756.1875 C-193.5301001 756.3424292 -194.7477002 756.4973584 -196.00219727 756.65698242 C-221.00598734 759.60909775 -246.03251847 760.38105426 -271.18042374 760.31805801 C-273.47879354 760.31239832 -275.77715591 760.30958998 -278.07553101 760.30697632 C-349.78712583 760.18855825 -431.6807385 753.87958685 -489 706 C-489.68707031 705.44828125 -490.37414062 704.8965625 -491.08203125 704.328125 C-496.86546751 699.53711271 -501.43002592 693.93599894 -506 688 C-506.6084375 687.23042969 -507.216875 686.46085938 -507.84375 685.66796875 C-520.28929885 669.06447517 -526.19548164 649.05849697 -526.10920715 628.47361755 C-526.10880029 627.42551897 -526.10839342 626.37742038 -526.10797423 625.29756123 C-526.1052806 621.79136692 -526.09527207 618.28523306 -526.08520508 614.77905273 C-526.08160798 612.26202444 -526.0784033 609.74499557 -526.07556152 607.22796631 C-526.0652144 599.67710766 -526.04608782 592.1262892 -526.02530077 584.57545313 C-526.01569497 581.00942604 -526.00713183 577.44339646 -525.99844933 573.87736702 C-525.96914651 562.00380784 -525.9373737 550.13025934 -525.89822865 538.25672817 C-525.88811003 535.17904605 -525.87799833 532.1013639 -525.86791992 529.02368164 C-525.86541305 528.25884175 -525.86290617 527.49400187 -525.86032333 526.70598502 C-525.82027307 514.34760161 -525.79702265 501.9892478 -525.78094129 489.63081228 C-525.76411821 476.90874553 -525.73229863 464.18678433 -525.68605727 451.46478993 C-525.66050334 444.33578866 -525.64120352 437.20689845 -525.63868141 430.07784843 C-525.63624686 423.35784614 -525.61326496 416.63820846 -525.57712555 409.91828918 C-525.56710926 407.46839269 -525.56364116 405.01845806 -525.56765556 402.56854439 C-525.61248245 368.69004623 -518.89784449 336.96256555 -496 311 C-495.50113281 310.36964844 -495.00226563 309.73929688 -494.48828125 309.08984375 C-473.63578103 282.85990794 -435.59905324 270.73572524 -403.74305898 266.71514928 C-397.36328273 266.02637416 -391.0640385 265.85519228 -384.65055847 265.86196899 C-383.55018842 265.85914771 -382.44981836 265.85632643 -381.31610376 265.85341966 C-377.65107687 265.84512699 -373.9860804 265.84373998 -370.32104492 265.84228516 C-367.68372393 265.83761286 -365.0464069 265.83253436 -362.40908813 265.82688904 C-356.73821871 265.81540105 -351.06735219 265.80713675 -345.39647484 265.80076981 C-336.41316678 265.79039395 -327.42989509 265.76981608 -318.4466095 265.74765015 C-315.36552346 265.74017145 -312.28443726 265.73275749 -309.20335102 265.72536278 C-308.43342772 265.72351221 -307.66350441 265.72166165 -306.8702501 265.719755 C-298.11866311 265.69885542 -289.36707211 265.68001613 -280.61547852 265.66210938 C-279.81618545 265.66047119 -279.01689238 265.65883301 -278.19337831 265.65714519 C-265.26545426 265.63090816 -252.3375274 265.61223589 -239.40958806 265.59551747 C-226.09872088 265.57802765 -212.78790889 265.54910896 -199.47708589 265.5106281 C-191.28932047 265.48737524 -183.10164511 265.47324691 -174.91384641 265.47130047 C-169.28798236 265.46917268 -163.66220744 265.45609191 -158.03638353 265.43482114 C-154.80335053 265.42293011 -151.57052628 265.41721433 -148.3374691 265.42153358 C-129.8651059 265.44225095 -111.33200081 264.77357652 -93.5 259.4375 C-92.65453613 259.18919434 -91.80907227 258.94088867 -90.93798828 258.68505859 C-71.50852036 252.6574467 -55.73378316 242.86854422 -41 229 C-40.33484375 228.41089844 -39.6696875 227.82179688 -38.984375 227.21484375 C-15.90368236 205.86989426 -3.65480479 169.5193156 -1 139 C-0.83555555 134.44445524 -0.81531875 129.8902285 -0.79467773 125.33203125 C-0.78508337 123.96140763 -0.77507241 122.59078686 -0.76467896 121.22016907 C-0.73779254 117.520366 -0.71669562 113.82055039 -0.69667697 110.12070465 C-0.67471631 106.24629976 -0.64737723 102.3719328 -0.62062073 98.49755859 C-0.57082947 91.17028221 -0.52584067 83.84298461 -0.48259836 76.51566696 C-0.43310958 68.16978688 -0.37823485 59.8239449 -0.32291877 51.47810173 C-0.20930717 34.31876975 -0.1024233 17.15940233 0 0 Z M-172.3125 608.1875 C-180.87965221 618.28078458 -182.75878844 630.21239903 -182.17041016 642.97412109 C-181.26114026 653.78375086 -175.36448003 663.22890042 -167.38671875 670.32421875 C-157.37708823 677.98363899 -146.66895544 682.06543203 -134 681 C-122.00058759 678.9680995 -112.21199436 674.09452199 -104 665 C-96.41139543 654.13022736 -92.58621218 642.65216373 -94.6875 629.375 C-97.39654011 616.76271393 -104.47376491 606.47538395 -115 599 C-135.32565903 588.67098585 -156.28381966 591.68035159 -172.3125 608.1875 Z " fill="#FFD242" transform="translate(790,257)"/>
</svg>
